<?xml version="1.0" encoding="UTF-8"?>
<svg xmlns="http://www.w3.org/2000/svg" width="1200" height="630" viewBox="0 0 1200 630" role="img" aria-labelledby="title desc">
  <title id="title">Shift-Left Security</title>
  <desc id="desc">A developer-friendly shift-left security illustration with a left arrow, CI checks, and a shield.</desc>

  <defs>
    <linearGradient id="bg" x1="0" y1="0" x2="1" y2="1">
      <stop offset="0%" stop-color="#0B1020"/>
      <stop offset="100%" stop-color="#101733"/>
    </linearGradient>
    <linearGradient id="accent" x1="0" y1="0" x2="1" y2="1">
      <stop offset="0%" stop-color="#7C3AED"/>
      <stop offset="100%" stop-color="#06B6D4"/>
    </linearGradient>
    <pattern id="grid" width="24" height="24" patternUnits="userSpaceOnUse">
      <path d="M24 0H0V24" fill="none" stroke="#ffffff" stroke-opacity="0.05"/>
    </pattern>
    <filter id="shadow" x="-20%" y="-20%" width="140%" height="140%">
      <feDropShadow dx="0" dy="8" stdDeviation="12" flood-color="#000000" flood-opacity="0.3"/>
    </filter>
  </defs>

  <rect width="1200" height="630" fill="url(#bg)"/>
  <rect width="1200" height="630" fill="url(#grid)"/>

  <g transform="translate(80,265)" opacity="0.9">
    <path d="M220 50 H480 a24 24 0 0 1 0 48 H220 v52 L0 74 220 0 v50 z" fill="url(#accent)" filter="url(#shadow)"/>
  </g>

  <g transform="translate(380,170)">
    <rect x="0" y="0" width="260" height="80" rx="14" fill="#151C3A" stroke="#2A3566"/>
    <circle cx="40" cy="40" r="18" fill="#0F172A" stroke="#334155"/>
    <path d="M32 40 l6 6 12 -12" fill="none" stroke="#10B981" stroke-width="4" stroke-linecap="round" stroke-linejoin="round"/>
    <rect x="70" y="24" width="160" height="12" rx="6" fill="#334155"/>
    <rect x="70" y="46" width="120" height="10" rx="5" fill="#1F2A4D"/>
  </g>

  <g transform="translate(440,270)">
    <rect x="0" y="0" width="260" height="80" rx="14" fill="#151C3A" stroke="#2A3566"/>
    <circle cx="40" cy="40" r="18" fill="#0F172A" stroke="#334155"/>
    <path d="M32 40 l6 6 12 -12" fill="none" stroke="#10B981" stroke-width="4" stroke-linecap="round" stroke-linejoin="round"/>
    <rect x="70" y="24" width="160" height="12" rx="6" fill="#334155"/>
    <rect x="70" y="46" width="140" height="10" rx="5" fill="#1F2A4D"/>
  </g>

  <g transform="translate(500,370)">
    <rect x="0" y="0" width="260" height="80" rx="14" fill="#151C3A" stroke="#2A3566"/>
    <circle cx="40" cy="40" r="18" fill="#0F172A" stroke="#334155"/>
    <path d="M32 40 l6 6 12 -12" fill="none" stroke="#10B981" stroke-width="4" stroke-linecap="round" stroke-linejoin="round"/>
    <rect x="70" y="24" width="160" height="12" rx="6" fill="#334155"/>
    <rect x="70" y="46" width="110" height="10" rx="5" fill="#1F2A4D"/>
  </g>

  <g transform="translate(860,175)">
    <path d="M120 0 L220 40 L220 160 C220 210 180 255 120 270 C60 255 20 210 20 160 L20 40 Z" fill="#111827" stroke="#3B82F6" stroke-opacity="0.6"/>
    <path d="M120 20 L200 52 L200 156 C200 192 170 226 120 238 C70 226 40 192 40 156 L40 52 Z" fill="url(#accent)" opacity="0.9"/>
    <path d="M86 128 l28 28 52 -64" fill="none" stroke="#ECFDF5" stroke-width="10" stroke-linecap="round" stroke-linejoin="round"/>
  </g>

  <g transform="translate(80,120)">
    <text x="0" y="0" fill="#E5E7EB" font-family="system-ui,-apple-system,Segoe UI,Roboto,Inter,Arial,sans-serif" font-size="56" font-weight="700">Shift‑Left Security</text>
    <text x="0" y="40" fill="#A5B4FC" font-family="system-ui,-apple-system,Segoe UI,Roboto,Inter,Arial,sans-serif" font-size="24" opacity="0.9">Developer‑friendly guardrails for CI/CD, containers, and IaC</text>
  </g>

  <text x="80" y="590" fill="#94A3B8" font-family="system-ui,-apple-system,Segoe UI,Roboto,Inter,Arial,sans-serif" font-size="18" opacity="0.8">Fast feedback • High signal • Policies as code</text>
</svg>
